<svg width="958" height="898" viewBox="0 0 958 898" fill="none" xmlns="http://www.w3.org/2000/svg">
<g clip-path="url(#clip0_1_53)">
<rect x="13" width="965" height="898" fill="#D9D9D9"/>
<path d="M981 865L758 898H981V865Z" fill="#EDEDED"/>
<path d="M375 -23.3848L12.8218 493L-36 -44L375 -23.3848Z" fill="#EDEDED"/>
<path d="M446 65.5L355.5 -0.5L509 -15L1044.5 -26L1023 864.5L946 872V572L951.5 567L896.5 506.5V316.5L862.5 303.5V157.5L833.5 127L765 131.5V306H731L662.5 222L556 144L518 117L523 72.5L509.5 57L446 65.5Z" fill="#EDEDED"/>
<line x1="16" y1="898" x2="16" y2="495" stroke="#E6E6E6" stroke-width="10"/>
<line x1="121" y1="808" x2="121" y2="447" stroke="#E6E6E6" stroke-width="10"/>
<line x1="119.926" y1="450.101" x2="361.926" y2="110.101" stroke="#E6E6E6" stroke-width="10"/>
<line x1="622.197" y1="416.247" x2="441.197" y2="204.247" stroke="#E6E6E6" stroke-width="10"/>
<line x1="621" y1="898" x2="621" y2="413" stroke="#E6E6E6" stroke-width="10"/>
<line x1="116" y1="803" x2="368" y2="803" stroke="#E6E6E6" stroke-width="10"/>
<line x1="440" y1="201" x2="440" y2="889" stroke="#E6E6E6" stroke-width="10"/>
<line x1="362" y1="807.994" x2="363.001" y2="105.993" stroke="#E6E6E6" stroke-width="10"/>
<line x1="759" y1="889" x2="759" y2="467" stroke="#E6E6E6" stroke-width="10"/>
<line x1="941" y1="868" x2="941" y2="564" stroke="#E6E6E6" stroke-width="10"/>
<line x1="21" y1="893" x2="758" y2="893" stroke="#E6E6E6" stroke-width="10"/>
<line x1="757.328" y1="892.555" x2="945.328" y2="867.045" stroke="#E6E6E6" stroke-width="10"/>
<line x1="355.942" y1="5.9569" x2="656.942" y2="224.957" stroke="#E6E6E6" stroke-width="10"/>
<line x1="444.357" y1="70.5934" x2="510.357" y2="62.0415" stroke="#E6E6E6" stroke-width="10"/>
<line x1="764.582" y1="136.653" x2="831.73" y2="131.018" stroke="#E6E6E6" stroke-width="10"/>
<line x1="728.729" y1="309.559" x2="775.729" y2="307.007" stroke="#E6E6E6" stroke-width="10"/>
<line x1="858.741" y1="307.313" x2="893.741" y2="320.313" stroke="#E6E6E6" stroke-width="10"/>
<line x1="891" y1="316" x2="891" y2="505" stroke="#E6E6E6" stroke-width="10"/>
<line x1="768.999" y1="133.913" x2="775.017" y2="479.913" stroke="#E6E6E6" stroke-width="10"/>
<line x1="829.066" y1="131.041" x2="826" y2="507.041" stroke="#E6E6E6" stroke-width="10"/>
<line x1="857" y1="157" x2="857" y2="521" stroke="#E6E6E6" stroke-width="10"/>
<line x1="513.029" y1="117.46" x2="518.029" y2="71.4597" stroke="#E6E6E6" stroke-width="10"/>
<line x1="506.778" y1="60.7253" x2="519.778" y2="75.7253" stroke="#E6E6E6" stroke-width="10"/>
<line x1="830.711" y1="129.649" x2="858.711" y2="160.649" stroke="#E6E6E6" stroke-width="10"/>
<line x1="855.811" y1="463.764" x2="945.811" y2="569.764" stroke="#E6E6E6" stroke-width="10"/>
<line x1="654.798" y1="222.748" x2="773.798" y2="361.748" stroke="#E6E6E6" stroke-width="10"/>
<line x1="8.89697" y1="507.143" x2="359.897" y2="3.14254" stroke="#E6E6E6" stroke-width="10"/>
<line x1="354.773" y1="4.71891" x2="761.773" y2="472.719" stroke="#E6E6E6" stroke-width="10"/>
<line x1="761.475" y1="469.56" x2="947.304" y2="570.656" stroke="#E6E6E6" stroke-width="10"/>
<rect x="126" y="451" width="231" height="349" fill="white"/>
<rect x="445" y="417" width="171" height="472" fill="white"/>
<path d="M357 125L126 451H357V125Z" fill="white"/>
<path d="M445 215L616 417H445V215Z" fill="white"/>
</g>
<defs>
<clipPath id="clip0_1_53">
<rect width="958" height="898" fill="white"/>
</clipPath>
</defs>
</svg>
