<svg xmlns="http://www.w3.org/2000/svg" fill="none" viewBox="0 0 113 128">
    <path fill="#202020"
          d="M2.7 98.84h2.56c1.28 0 2.44.38 3.2 1.14.9.77 1.29 1.79 1.29 3.07a3.8 3.8 0 0 1-1.28 3.06 4.49 4.49 0 0 1-3.21 1.15H0V93.73h8.47v2.55H2.69v2.56Zm0 5.86h2.56c.51 0 1.02-.12 1.28-.5.39-.26.51-.77.51-1.28s-.12-.9-.5-1.28c-.4-.25-.78-.5-1.3-.5H2.7v3.56Zm11.28-10.97h-2.7v13.4h2.7v-13.4Zm1.42 13.53v-2.43c.76.13 1.4 0 1.79-.5.38-.52.64-1.28.64-2.56v-7.91h9.23v13.4h-2.7V96.28h-3.84v5.36c0 2.3-.51 3.96-1.67 4.72a5.05 5.05 0 0 1-3.46.9Zm24.62 0h-2.7v-8.3l-5.77 8.3H29.5V93.73h2.7v8.3l5.77-8.3h2.05v13.53Zm13.08 0h-2.69v-8.17l-5.77 8.17h-2.05V93.73h2.69v8.17l5.77-8.17h2.05v13.53Zm-2.43-14.8h-5.65v-2.17h5.65v2.17Zm-37.59 32.66v-10.98h2.7v13.53H0v-13.53h2.7v10.98h3.84v-10.98h2.7v10.98h3.84Zm16.55.76a6.8 6.8 0 0 1-5 2.04 6.8 6.8 0 0 1-5-2.04 6.72 6.72 0 0 1-2.06-4.97c0-1.92.64-3.58 2.05-4.98a6.8 6.8 0 0 1 5-2.04c1.93 0 3.6.64 5 2.04a6.72 6.72 0 0 1 2.06 4.98c0 1.91-.64 3.57-2.05 4.97Zm-8.08-1.78a4.5 4.5 0 0 0 3.07 1.27c1.29 0 2.31-.38 3.08-1.27.9-.9 1.29-1.92 1.29-3.2a4.2 4.2 0 0 0-1.29-3.18 4.18 4.18 0 0 0-3.08-1.28 3.8 3.8 0 0 0-3.07 1.28c-.9.9-1.29 1.91-1.29 3.19 0 1.27.39 2.3 1.29 3.19Zm17.31-3.45 5.26 7.02h-3.08l-4.87-6.38v6.38h-2.7v-13.53h2.7v6l4.62-6h3.08l-5 6.51Z"/>
    <path fill="#202020"
          d="M55.67 125.88a6.8 6.8 0 0 1-5 2.04 6.8 6.8 0 0 1-5-2.04 7.26 7.26 0 0 1-2.06-4.97c0-1.92.64-3.58 2.05-4.98a6.8 6.8 0 0 1 5-2.04c1.93 0 3.6.64 5 2.04a6.72 6.72 0 0 1 2.06 4.98c0 1.91-.77 3.57-2.05 4.97Zm-8.08-1.78a4.5 4.5 0 0 0 3.07 1.27c1.29 0 2.31-.38 3.08-1.27.9-.9 1.28-1.92 1.28-3.2a4.2 4.2 0 0 0-1.28-3.18 4.18 4.18 0 0 0-3.08-1.28c-1.28 0-2.3.38-3.07 1.28-.9.9-1.29 1.91-1.29 3.19 0 1.27.39 2.3 1.29 3.19Zm10.13 3.57v-2.42c.77.12 1.4 0 1.8-.52.38-.5.63-1.27.63-2.55v-7.9h9.24v13.39h-2.7V116.7h-3.84v5.36c0 2.3-.52 3.82-1.67 4.72a5.05 5.05 0 0 1-3.46.89Zm25.78 0h-2.95l-.77-2.42H74.4l-.77 2.42H70.8l4.75-13.4h3.33l4.62 13.4Zm-6.4-10.47-1.8 5.48h3.72l-1.92-5.48Zm18.2-3.06v10.98h1.41v2.55H83.88v-2.55h1.29c.77-1.02 1.15-2.56 1.15-4.6v-6.38h8.98Zm-7.18 10.98h4.49v-8.42H89v3.95c0 1.91-.38 3.32-.9 4.47Z"/>
    <path fill="#FCCDA2"
          d="M0 86.72V64.13C26.42 42.96 52.84 21.65 79.4.34L113 51.12v76.42h-9.23v-3.06h6.15V52.14L78.75 4.94 3.08 65.66v21.06H0Z"/>
</svg>
