<svg width="113" height="128" viewBox="0 0 113 128" fill="none" xmlns="http://www.w3.org/2000/svg">
<g clip-path="url(#clip0_21_8)">
<path d="M0 86.7201V64.1301C26.42 42.9601 52.84 21.6501 79.4 0.340088L113 51.1201V127.54H103.77V124.48H109.92V52.1401L78.75 4.94009L3.08 65.6601V86.7201H0Z" fill="#FCCDA2"/>
<path d="M6.304 103.224C2.928 103.224 0.48 100.696 0.48 97.4C0.48 94.104 2.928 91.576 6.304 91.576C8.336 91.576 10.128 92.584 11.104 94.168L8.896 95.448C8.4 94.584 7.44 94.072 6.304 94.072C4.32 94.072 3.04 95.4 3.04 97.4C3.04 99.4 4.32 100.728 6.304 100.728C7.44 100.728 8.416 100.216 8.896 99.352L11.104 100.632C10.144 102.216 8.352 103.224 6.304 103.224ZM16.7838 95H19.1838V103H16.7838V100.6C16.2398 100.76 15.6638 100.856 15.0238 100.856C13.2318 100.856 11.8238 99.928 11.8238 97.96V95H14.2238V97.64C14.2238 98.408 14.8318 98.616 15.5038 98.616C16.0477 98.616 16.4478 98.52 16.7838 98.36V95ZM26.7505 95H29.1505V103H26.7505V102.248C26.2225 102.856 25.4385 103.224 24.3665 103.224C22.2705 103.224 20.5425 101.384 20.5425 99C20.5425 96.616 22.2705 94.776 24.3665 94.776C25.4385 94.776 26.2225 95.144 26.7505 95.752V95ZM24.8465 100.952C25.9505 100.952 26.7505 100.2 26.7505 99C26.7505 97.8 25.9505 97.048 24.8465 97.048C23.7425 97.048 22.9425 97.8 22.9425 99C22.9425 100.2 23.7425 100.952 24.8465 100.952ZM34.7513 103.224C32.3193 103.224 30.5113 101.384 30.5113 99C30.5113 96.616 32.3193 94.776 34.7513 94.776C36.3033 94.776 37.6793 95.592 38.3673 96.824L36.2713 98.04C35.9993 97.48 35.4233 97.144 34.7193 97.144C33.6793 97.144 32.9113 97.896 32.9113 99C32.9113 100.104 33.6793 100.856 34.7193 100.856C35.4233 100.856 36.0153 100.52 36.2713 99.96L38.3673 101.16C37.6793 102.408 36.3193 103.224 34.7513 103.224ZM45.8131 95V97.304H43.4291V103H41.0291V97.304H38.6131V95H45.8131ZM53.3244 95V103H50.9244V97.304H49.1964V99.688C49.1964 102.104 47.9804 103.272 45.6444 103V100.76C46.3964 100.984 46.7964 100.52 46.7964 99.528V95H53.3244ZM60.8431 95H62.6031V103H60.2671V99L56.8431 103H55.0831V95H57.4191V99L60.8431 95ZM70.3324 98.904C71.0204 99.272 71.4044 99.896 71.4044 100.712C71.4044 102.04 70.4604 103 68.6844 103H64.3644V95H68.3644C70.1404 95 71.0844 95.96 71.0844 97.288C71.0844 97.976 70.8284 98.536 70.3324 98.904ZM68.1084 96.92H66.6044V98.04H68.1084C68.5404 98.04 68.8124 97.88 68.8124 97.496C68.8124 97.096 68.5404 96.92 68.1084 96.92ZM68.3644 101.016C68.7804 101.016 69.0684 100.824 69.0684 100.424C69.0684 100.04 68.7804 99.864 68.3644 99.864H66.6044V101.016H68.3644ZM76.3428 97.4C78.2788 97.4 79.4788 98.52 79.4788 100.2C79.4788 101.88 78.2788 103 76.3428 103H72.5988V95H74.9988V97.4H76.3428ZM80.2788 95H82.6788V103H80.2788V95ZM76.3588 100.92C76.8388 100.92 77.1428 100.616 77.1428 100.2C77.1428 99.784 76.8388 99.48 76.3588 99.48H74.9988V100.92H76.3588ZM85.8025 94.056V91.976H90.6025V94.056H85.8025ZM90.2025 95H91.9625V103H89.6265V99L86.2025 103H84.4425V95H86.7785V99L90.2025 95ZM8.56 123H5.84L3.28 119.464V123H0.88V115H3.28V118.504L5.68 115H8.48L5.568 119L8.56 123ZM15.4105 118.904C16.0985 119.272 16.4825 119.896 16.4825 120.712C16.4825 122.04 15.5385 123 13.7625 123H9.4425V115H13.4425C15.2185 115 16.1625 115.96 16.1625 117.288C16.1625 117.976 15.9065 118.536 15.4105 118.904ZM13.1865 116.92H11.6825V118.04H13.1865C13.6185 118.04 13.8905 117.88 13.8905 117.496C13.8905 117.096 13.6185 116.92 13.1865 116.92ZM13.4425 121.016C13.8585 121.016 14.1465 120.824 14.1465 120.424C14.1465 120.04 13.8585 119.864 13.4425 119.864H11.6825V121.016H13.4425ZM23.4849 115H25.8849V123H23.4849V122.248C22.9569 122.856 22.1729 123.224 21.1009 123.224C19.0049 123.224 17.2769 121.384 17.2769 119C17.2769 116.616 19.0049 114.776 21.1009 114.776C22.1729 114.776 22.9569 115.144 23.4849 115.752V115ZM21.5809 120.952C22.6849 120.952 23.4849 120.2 23.4849 119C23.4849 117.8 22.6849 117.048 21.5809 117.048C20.4769 117.048 19.6769 117.8 19.6769 119C19.6769 120.2 20.4769 120.952 21.5809 120.952ZM32.4296 114.776C34.5256 114.776 36.2536 116.616 36.2536 119C36.2536 121.384 34.5256 123.224 32.4296 123.224C31.3576 123.224 30.5736 122.856 30.0456 122.248V126.2H27.6456V115H30.0456V115.752C30.5736 115.144 31.3576 114.776 32.4296 114.776ZM31.9496 120.952C33.0536 120.952 33.8536 120.2 33.8536 119C33.8536 117.8 33.0536 117.048 31.9496 117.048C30.8456 117.048 30.0456 117.8 30.0456 119C30.0456 120.2 30.8456 120.952 31.9496 120.952ZM43.7819 115V117.304H41.3979V123H38.9979V117.304H36.5819V115H43.7819ZM50.313 115H52.713V123H50.313V122.248C49.785 122.856 49.001 123.224 47.929 123.224C45.833 123.224 44.105 121.384 44.105 119C44.105 116.616 45.833 114.776 47.929 114.776C49.001 114.776 49.785 115.144 50.313 115.752V115ZM48.409 120.952C49.513 120.952 50.313 120.2 50.313 119C50.313 117.8 49.513 117.048 48.409 117.048C47.305 117.048 46.505 117.8 46.505 119C46.505 120.2 47.305 120.952 48.409 120.952ZM61.4338 115V123H59.0338V117.304H57.3058V119.688C57.3058 122.104 56.0898 123.272 53.7538 123V120.76C54.5058 120.984 54.9058 120.52 54.9058 119.528V115H61.4338Z" fill="black"/>
</g>
<defs>
<clipPath id="clip0_21_8">
<rect width="113" height="128" fill="white"/>
</clipPath>
</defs>
</svg>
