<svg fill="none" xmlns="http://www.w3.org/2000/svg" viewBox="0 0 62 70">
    <path d="M1.478 54.04h1.407c.704 0 1.337.21 1.76.63.492.42.703.98.703 1.68s-.21 1.26-.703 1.68c-.423.42-1.056.63-1.76.63H0v-7.42h4.645v1.4H1.478v1.4Zm0 3.22h1.407c.282 0 .563-.07.704-.28.211-.14.282-.42.282-.7 0-.28-.07-.49-.282-.7-.211-.14-.422-.28-.704-.28H1.478v1.96ZM7.67 51.24H6.194v7.35H7.67v-7.35ZM8.445 58.66v-1.33c.422.07.774 0 .985-.28.211-.28.352-.7.352-1.4v-4.34h5.067v7.35H13.37v-6.02H11.26v2.94c0 1.26-.282 2.17-.915 2.59-.493.35-1.126.56-1.9.49ZM21.957 58.66h-1.478v-4.55l-3.167 4.55h-1.126v-7.42h1.478v4.55l3.167-4.55h1.126v7.42ZM29.135 58.66h-1.478v-4.48l-3.167 4.48h-1.126v-7.42h1.478v4.48l3.167-4.48h1.126v7.42Zm-1.337-8.12H24.7v-1.19h3.097v1.19ZM7.178 68.46v-6.02h1.478v7.42H0v-7.42h1.478v6.02h2.111v-6.02h1.478v6.02h2.111ZM16.257 68.88c-.775.77-1.69 1.12-2.745 1.12-1.056 0-1.97-.35-2.745-1.12-.774-.77-1.126-1.68-1.126-2.73s.352-1.96 1.126-2.73c.774-.77 1.69-1.12 2.745-1.12 1.056 0 1.97.35 2.745 1.12.774.77 1.126 1.68 1.126 2.73s-.352 1.96-1.126 2.73Zm-4.434-.98c.422.42 1.056.7 1.689.7.704 0 1.267-.21 1.689-.7.493-.49.704-1.05.704-1.75s-.211-1.26-.704-1.75a2.293 2.293 0 0 0-1.689-.7c-.704 0-1.267.21-1.689.7-.493.49-.704 1.05-.704 1.75s.211 1.26.704 1.75ZM21.323 66.01l2.886 3.85h-1.69l-2.673-3.5v3.5h-1.478v-7.42h1.478v3.29l2.533-3.29h1.689l-2.745 3.57Z" fill="#fff"/><path d="M30.543 68.88c-.775.77-1.69 1.12-2.745 1.12-1.056 0-1.97-.35-2.745-1.12-.704-.77-1.126-1.68-1.126-2.73s.352-1.96 1.126-2.73c.774-.77 1.69-1.12 2.745-1.12 1.056 0 1.97.35 2.745 1.12.774.77 1.126 1.68 1.126 2.73s-.423 1.96-1.127 2.73Zm-4.434-.98c.422.42 1.055.7 1.689.7.704 0 1.267-.21 1.689-.7.493-.49.704-1.05.704-1.75s-.211-1.26-.704-1.75a2.293 2.293 0 0 0-1.69-.7c-.703 0-1.266.21-1.688.7-.493.49-.704 1.05-.704 1.75s.211 1.26.704 1.75ZM31.669 69.86v-1.33c.422.07.774 0 .985-.28.21-.28.352-.7.352-1.4v-4.34h5.066v7.35h-1.477v-6.02h-2.112v2.94c0 1.26-.281 2.1-.914 2.59-.493.35-1.126.56-1.9.49ZM45.814 69.86h-1.619l-.422-1.33h-2.956l-.422 1.33h-1.548l2.603-7.35h1.83l2.534 7.35Zm-3.519-5.74-.985 3.01h2.04l-1.055-3.01ZM52.288 62.44v6.02h.774v1.4h-7.037v-1.4h.704c.422-.56.633-1.4.633-2.52v-3.5h4.926Zm-3.94 6.02h2.462v-4.62h-1.97v2.17c0 1.05-.211 1.82-.493 2.45Z" fill="#fff"/>
    <path d="M0 47.39V35C14.497 23.38 28.994 11.69 43.562 0L62 27.86v41.93h-5.067v-1.68h3.378V28.42L43.21 2.52 1.689 35.84v11.55H0Z" fill="#F8DFCA"/></svg>
