<svg width="62" height="70" viewBox="0 0 62 70" fill="none" xmlns="http://www.w3.org/2000/svg">
<g clip-path="url(#clip0_21_12)">
<path d="M0 47.39V35C14.497 23.38 28.994 11.69 43.562 0L62 27.86V69.79H56.933V68.11H60.311V28.42L43.21 2.52L1.689 35.84V47.39H0Z" fill="#F8DFCA"/>
<path d="M3.94 58.14C1.83 58.14 0.3 56.56 0.3 54.5C0.3 52.44 1.83 50.86 3.94 50.86C5.21 50.86 6.33 51.49 6.94 52.48L5.56 53.28C5.25 52.74 4.65 52.42 3.94 52.42C2.7 52.42 1.9 53.25 1.9 54.5C1.9 55.75 2.7 56.58 3.94 56.58C4.65 56.58 5.26 56.26 5.56 55.72L6.94 56.52C6.34 57.51 5.22 58.14 3.94 58.14ZM10.4898 53H11.9898V58H10.4898V56.5C10.1498 56.6 9.78984 56.66 9.38984 56.66C8.26984 56.66 7.38984 56.08 7.38984 54.85V53H8.88984V54.65C8.88984 55.13 9.26984 55.26 9.68984 55.26C10.0298 55.26 10.2798 55.2 10.4898 55.1V53ZM16.7191 53H18.2191V58H16.7191V57.53C16.3891 57.91 15.8991 58.14 15.2291 58.14C13.9191 58.14 12.8391 56.99 12.8391 55.5C12.8391 54.01 13.9191 52.86 15.2291 52.86C15.8991 52.86 16.3891 53.09 16.7191 53.47V53ZM15.5291 56.72C16.2191 56.72 16.7191 56.25 16.7191 55.5C16.7191 54.75 16.2191 54.28 15.5291 54.28C14.8391 54.28 14.3391 54.75 14.3391 55.5C14.3391 56.25 14.8391 56.72 15.5291 56.72ZM21.7195 58.14C20.1995 58.14 19.0695 56.99 19.0695 55.5C19.0695 54.01 20.1995 52.86 21.7195 52.86C22.6895 52.86 23.5495 53.37 23.9795 54.14L22.6695 54.9C22.4995 54.55 22.1395 54.34 21.6995 54.34C21.0495 54.34 20.5695 54.81 20.5695 55.5C20.5695 56.19 21.0495 56.66 21.6995 56.66C22.1395 56.66 22.5095 56.45 22.6695 56.1L23.9795 56.85C23.5495 57.63 22.6995 58.14 21.7195 58.14ZM28.6332 53V54.44H27.1432V58H25.6432V54.44H24.1332V53H28.6332ZM33.3277 53V58H31.8277V54.44H30.7477V55.93C30.7477 57.44 29.9877 58.17 28.5277 58V56.6C28.9977 56.74 29.2477 56.45 29.2477 55.83V53H33.3277ZM38.027 53H39.127V58H37.667V55.5L35.527 58H34.427V53H35.887V55.5L38.027 53ZM43.9577 55.44C44.3877 55.67 44.6277 56.06 44.6277 56.57C44.6277 57.4 44.0377 58 42.9277 58H40.2277V53H42.7277C43.8377 53 44.4277 53.6 44.4277 54.43C44.4277 54.86 44.2677 55.21 43.9577 55.44ZM42.5677 54.2H41.6277V54.9H42.5677C42.8377 54.9 43.0077 54.8 43.0077 54.56C43.0077 54.31 42.8377 54.2 42.5677 54.2ZM42.7277 56.76C42.9877 56.76 43.1677 56.64 43.1677 56.39C43.1677 56.15 42.9877 56.04 42.7277 56.04H41.6277V56.76H42.7277ZM47.7142 54.5C48.9242 54.5 49.6742 55.2 49.6742 56.25C49.6742 57.3 48.9242 58 47.7142 58H45.3742V53H46.8742V54.5H47.7142ZM50.1742 53H51.6742V58H50.1742V53ZM47.7242 56.7C48.0242 56.7 48.2142 56.51 48.2142 56.25C48.2142 55.99 48.0242 55.8 47.7242 55.8H46.8742V56.7H47.7242ZM53.6266 52.41V51.11H56.6266V52.41H53.6266ZM56.3766 53H57.4766V58H56.0166V55.5L53.8766 58H52.7766V53H54.2366V55.5L56.3766 53ZM5.35 70H3.65L2.05 67.79V70H0.55V65H2.05V67.19L3.55 65H5.3L3.48 67.5L5.35 70ZM9.63156 67.44C10.0616 67.67 10.3016 68.06 10.3016 68.57C10.3016 69.4 9.71156 70 8.60156 70H5.90156V65H8.40156C9.51156 65 10.1016 65.6 10.1016 66.43C10.1016 66.86 9.94156 67.21 9.63156 67.44ZM8.24156 66.2H7.30156V66.9H8.24156C8.51156 66.9 8.68156 66.8 8.68156 66.56C8.68156 66.31 8.51156 66.2 8.24156 66.2ZM8.40156 68.76C8.66156 68.76 8.84156 68.64 8.84156 68.39C8.84156 68.15 8.66156 68.04 8.40156 68.04H7.30156V68.76H8.40156ZM14.678 65H16.178V70H14.678V69.53C14.348 69.91 13.858 70.14 13.188 70.14C11.878 70.14 10.798 68.99 10.798 67.5C10.798 66.01 11.878 64.86 13.188 64.86C13.858 64.86 14.348 65.09 14.678 65.47V65ZM13.488 68.72C14.178 68.72 14.678 68.25 14.678 67.5C14.678 66.75 14.178 66.28 13.488 66.28C12.798 66.28 12.298 66.75 12.298 67.5C12.298 68.25 12.798 68.72 13.488 68.72ZM20.2685 64.86C21.5785 64.86 22.6585 66.01 22.6585 67.5C22.6585 68.99 21.5785 70.14 20.2685 70.14C19.5985 70.14 19.1085 69.91 18.7785 69.53V72H17.2785V65H18.7785V65.47C19.1085 65.09 19.5985 64.86 20.2685 64.86ZM19.9685 68.72C20.6585 68.72 21.1585 68.25 21.1585 67.5C21.1585 66.75 20.6585 66.28 19.9685 66.28C19.2785 66.28 18.7785 66.75 18.7785 67.5C18.7785 68.25 19.2785 68.72 19.9685 68.72ZM27.3637 65V66.44H25.8737V70H24.3737V66.44H22.8637V65H27.3637ZM31.4456 65H32.9456V70H31.4456V69.53C31.1156 69.91 30.6256 70.14 29.9556 70.14C28.6456 70.14 27.5656 68.99 27.5656 67.5C27.5656 66.01 28.6456 64.86 29.9556 64.86C30.6256 64.86 31.1156 65.09 31.4456 65.47V65ZM30.2556 68.72C30.9456 68.72 31.4456 68.25 31.4456 67.5C31.4456 66.75 30.9456 66.28 30.2556 66.28C29.5656 66.28 29.0656 66.75 29.0656 67.5C29.0656 68.25 29.5656 68.72 30.2556 68.72ZM38.3961 65V70H36.8961V66.44H35.8161V67.93C35.8161 69.44 35.0561 70.17 33.5961 70V68.6C34.0661 68.74 34.3161 68.45 34.3161 67.83V65H38.3961Z" fill="white"/>
</g>
<defs>
<clipPath id="clip0_21_12">
<rect width="62" height="70" fill="white"/>
</clipPath>
</defs>
</svg>
